<?xml version="1.0" encoding="UTF-8" standalone="no"?><!DOCTYPE svg PUBLIC "-//W3C//DTD SVG 1.1//EN" "http://www.w3.org/Graphics/SVG/1.1/DTD/svg11.dtd"><svg width="100%" height="100%" viewBox="0 0 1280 800" version="1.1" xmlns="http://www.w3.org/2000/svg" xmlns:xlink="http://www.w3.org/1999/xlink" xml:space="preserve" style="fill-rule:evenodd;clip-rule:evenodd;stroke-linejoin:round;stroke-miterlimit:1.41421;"><g><path d="M536.591,230.178c-2.517,-6.78 -5.538,-8.866 -13.09,-8.866c-6.042,0 -19.132,1.564 -42.795,1.564c-42.795,0 -10.573,26.076 -10.07,38.071c0.504,15.124 0.504,93.872 0.504,101.173c0,9.387 -1.51,142.894 -7.552,179.921c-3.021,17.732 -29.705,50.065 13.09,50.065c41.788,0 55.382,1.565 60.92,1.565c4.028,0 4.532,-1.565 4.532,-3.651l0,-13.037c0,-2.087 -0.504,-3.651 -3.525,-3.651l-25.173,0c-16.112,0 -20.643,-8.344 -23.16,-38.07c-1.511,-18.253 -1.007,-128.292 -1.007,-134.55c0,-6.258 1.007,-138.201 3.021,-145.502c7.048,6.258 52.864,123.077 62.43,147.066l68.473,174.707c2.013,5.215 4.531,9.387 7.552,9.387c4.027,0 8.055,-7.823 10.069,-12.517c2.014,-4.693 57.899,-137.679 60.92,-143.937c2.518,-5.215 74.011,-169.491 79.045,-176.27l1.007,0c1.511,4.693 1.511,97.522 1.511,131.942l0,33.377c0,38.591 -0.504,129.334 -1.007,135.593c-1.007,15.645 -5.538,18.774 -14.097,18.774l-34.237,0c-3.524,0 -4.027,1.043 -4.027,3.651l0,11.994c0,3.129 0.503,4.694 4.027,4.694c6.546,0 26.181,-1.565 72.5,-1.565c55.382,0 24.671,-27.118 24.671,-46.936c0,-10.43 -1.511,-94.915 -1.511,-120.99l0,-36.506c0,-34.941 1.511,-109.517 1.511,-124.641c0,-11.995 17.118,-40.157 -49.844,-40.157c-5.035,0 -10.573,0.522 -11.58,6.258c-1.51,10.431 -56.389,132.986 -59.913,140.287c-4.028,6.78 -54.375,131.421 -61.424,139.244l-111.771,-278.487Z" style="fill:#fff;fill-rule:nonzero;"/><path d="M1123.59,612.173c70.99,0 119.827,-42.243 150.035,-87.614c1.51,-2.608 0.504,-3.651 -1.007,-4.694l-6.545,-5.215c-1.51,-1.564 -2.517,-1.043 -4.028,1.565c-23.16,33.898 -67.465,66.232 -124.357,66.232c-33.733,0 -62.431,-4.172 -96.667,-43.807c-39.271,-44.85 -48.333,-103.781 -48.333,-134.029c-0.504,-76.14 35.746,-159.061 125.868,-159.061c39.774,0 66.458,17.732 87.604,40.157c21.146,22.425 32.222,47.457 39.271,64.667c1.51,4.172 2.517,4.694 5.034,4.172l7.552,-2.086c2.014,-0.521 2.518,-2.607 2.014,-5.215c-2.517,-14.602 -12.587,-91.264 -12.587,-101.173c0,-7.301 -1.006,-8.344 -5.538,-8.344c-4.531,0 -5.538,0 -6.545,3.129l-4.028,15.124c-1.007,3.65 -3.524,4.172 -10.069,0c-18.125,-10.952 -55.885,-28.684 -101.701,-28.684c-54.879,0 -100.191,24.511 -125.868,52.673c-36.25,39.635 -51.355,89.7 -51.355,138.201c0,50.065 17.622,110.56 53.872,146.023c30.208,28.683 67.969,47.979 127.378,47.979Z" style="fill:#fff;fill-rule:nonzero;"/><path d="M186.881,607.111c70.989,0 119.826,-42.242 150.034,-87.614c1.511,-2.607 0.504,-3.65 -1.006,-4.693l-6.546,-5.215c-1.51,-1.565 -2.517,-1.043 -4.027,1.564c-23.16,33.899 -67.466,66.232 -124.358,66.232c-33.733,0 -62.431,-4.172 -96.667,-43.807c-39.27,-44.85 -48.333,-103.78 -48.333,-134.028c-0.503,-76.141 35.747,-159.061 125.868,-159.061c39.774,0 66.458,17.731 87.604,40.156c21.146,22.425 32.222,47.458 39.271,64.668c1.51,4.172 2.517,4.693 5.035,4.172l7.552,-2.086c2.014,-0.522 2.517,-2.608 2.014,-5.215c-2.518,-14.603 -12.587,-91.265 -12.587,-101.174c0,-7.301 -1.007,-8.344 -5.538,-8.344c-4.532,0 -5.538,0 -6.545,3.129l-4.028,15.124c-1.007,3.651 -3.524,4.172 -10.07,0c-18.125,-10.952 -55.885,-28.683 -101.701,-28.683c-54.878,0 -100.191,24.511 -125.868,52.673c-36.25,39.635 -51.354,89.7 -51.354,138.2c0,50.065 17.621,110.561 53.871,146.023c30.209,28.683 67.969,47.979 127.379,47.979Z" style="fill:#fff;fill-rule:nonzero;"/><path d="M531.448,127.949l0,81.971c-62.749,38.4 -104.875,109.184 -104.875,190.08c0,80.896 42.126,151.68 104.875,190.08l0,81.971c-103.175,-44.085 -175.869,-149.344 -175.869,-272.051c0,-122.707 72.694,-227.966 175.869,-272.051Zm216.212,0c103.175,44.085 175.869,149.344 175.869,272.051c0,122.707 -72.694,227.966 -175.869,272.051l0,-81.971c62.749,-38.4 104.875,-109.184 104.875,-190.08c0,-80.896 -42.126,-151.68 -104.875,-190.08l0,-81.971Z" style="fill:#6cafa5;"/></g></svg>