<?xml version="1.0" encoding="UTF-8" standalone="no"?><!DOCTYPE svg PUBLIC "-//W3C//DTD SVG 1.1//EN" "http://www.w3.org/Graphics/SVG/1.1/DTD/svg11.dtd"><svg width="100%" height="100%" viewBox="0 0 172 57" version="1.1" xmlns="http://www.w3.org/2000/svg" xmlns:xlink="http://www.w3.org/1999/xlink" xml:space="preserve" style="fill-rule:evenodd;clip-rule:evenodd;stroke-linejoin:round;stroke-miterlimit:1.41421;"><path d="M148.83,13.862c0.055,0.012 0.112,0.022 0.167,0.035c0.141,0.036 0.279,0.086 0.411,0.147c0.605,0.279 1.053,0.799 1.425,1.336c0.088,0.128 0.173,0.258 0.255,0.39c0.19,0.303 0.367,0.615 0.537,0.931c0.085,0.158 0.172,0.317 0.249,0.479c0.071,0.151 0.132,0.306 0.185,0.463c0.198,0.591 0.281,1.216 0.314,1.836c0.046,0.88 -0.014,1.762 -0.106,2.638c0.803,2.363 1.597,4.729 2.398,7.093c0.4,1.176 0.801,2.351 1.205,3.526c0.134,0.39 0.269,0.78 0.405,1.17l0.136,0.391c0.288,0.316 0.574,0.634 0.859,0.954c1.086,1.225 2.146,2.473 3.157,3.761c0.715,0.912 1.408,1.842 2.049,2.807c0.451,0.678 0.885,1.376 1.227,2.116c0.233,0.503 0.426,1.038 0.461,1.596c0.037,0.584 -0.116,1.174 -0.475,1.642c-0.104,0.136 -0.224,0.259 -0.356,0.368c-0.091,0.075 -0.178,0.135 -0.279,0.196c-0.082,0.049 -0.17,0.091 -0.256,0.133c-0.193,0.094 -0.389,0.183 -0.589,0.261c-0.322,0.126 -0.656,0.223 -0.998,0.277c-0.409,0.064 -0.825,0.066 -1.235,0.011c-0.409,-0.056 -0.81,-0.168 -1.197,-0.311c-0.158,-0.059 -0.315,-0.123 -0.469,-0.192c-0.164,-0.072 -0.321,-0.145 -0.471,-0.245c-0.327,-0.216 -0.587,-0.517 -0.805,-0.84c-0.133,-0.199 -0.252,-0.407 -0.365,-0.618c-0.15,-0.283 -0.289,-0.571 -0.422,-0.861c-0.338,-0.736 -0.644,-1.486 -0.942,-2.238c-0.878,-2.215 -1.676,-4.46 -2.467,-6.706l-0.015,-0.043c-1.149,-1.241 -2.329,-2.451 -3.532,-3.638l-0.189,-0.186c-0.062,0.101 -0.125,0.2 -0.19,0.299c-0.066,0.098 -0.133,0.196 -0.202,0.292c-0.328,0.446 -0.697,0.857 -1.083,1.252c-0.314,0.322 -0.64,0.632 -0.971,0.936c-0.926,0.849 -1.898,1.649 -2.891,2.418c-1.083,0.839 -2.194,1.642 -3.331,2.407c-0.819,0.551 -1.652,1.083 -2.499,1.589c-1.435,0.857 -2.915,1.653 -4.462,2.288c-0.561,0.23 -1.131,0.438 -1.712,0.609c-0.548,0.161 -1.106,0.29 -1.673,0.362c-0.275,0.035 -0.552,0.055 -0.83,0.061c-0.245,0.004 -0.491,-0.011 -0.735,-0.024c-0.374,-0.021 -0.747,-0.049 -1.119,-0.094c-0.645,-0.079 -1.277,-0.213 -1.889,-0.435l-0.005,-0.002c-0.07,0.084 -0.141,0.167 -0.214,0.249c-0.061,0.067 -0.123,0.133 -0.186,0.199c-0.245,0.247 -0.505,0.478 -0.782,0.689c-0.646,0.493 -1.37,0.877 -2.123,1.18c-0.915,0.368 -1.874,0.621 -2.841,0.81c-0.343,0.067 -0.688,0.126 -1.034,0.178c-0.485,0.072 -0.973,0.132 -1.462,0.181c-0.903,0.091 -1.809,0.153 -2.715,0.198c-0.422,0.021 -0.843,0.037 -1.265,0.045c-2.031,0.038 -4.1,-0.09 -6.043,-0.727c-0.343,-0.113 -0.682,-0.241 -1.013,-0.385c-0.607,-0.263 -1.189,-0.581 -1.739,-0.947l-0.009,0.044c-0.037,0.15 -0.078,0.299 -0.131,0.445c-0.035,0.094 -0.075,0.186 -0.116,0.278c-0.067,0.151 -0.136,0.302 -0.21,0.451c-0.294,0.597 -0.657,1.178 -1.194,1.587c-0.083,0.063 -0.168,0.122 -0.257,0.175c-0.141,0.085 -0.288,0.157 -0.442,0.215c-0.202,0.076 -0.413,0.127 -0.628,0.153c-0.368,0.043 -0.739,0.008 -1.097,-0.081c-0.31,-0.077 -0.608,-0.193 -0.911,-0.292c-0.092,-0.029 -0.183,-0.056 -0.276,-0.079c-0.173,-0.041 -0.349,-0.071 -0.523,-0.107c-0.164,-0.036 -0.163,-0.036 -0.327,-0.075c-0.697,-0.175 -1.377,-0.403 -2.034,-0.695c-1.346,-0.597 -2.578,-1.429 -3.682,-2.4c-0.577,-0.507 -1.116,-1.054 -1.63,-1.625l-0.086,-0.097c-0.081,0.132 -0.165,0.262 -0.251,0.392c-0.077,0.115 -0.155,0.228 -0.234,0.341c-0.19,0.264 -0.386,0.522 -0.594,0.772c-0.179,0.216 -0.365,0.426 -0.559,0.629c-1.222,1.284 -2.757,2.333 -4.5,2.743c-0.346,0.081 -0.699,0.137 -1.053,0.164c-0.418,0.032 -0.838,0.025 -1.255,-0.023c-0.244,-0.028 -0.488,-0.066 -0.726,-0.129c-0.236,-0.062 -0.466,-0.148 -0.687,-0.252c-0.818,-0.386 -1.494,-1.009 -2.091,-1.678l-0.009,-0.01c-0.188,0.008 -0.377,0.013 -0.566,0.017c-0.218,0.002 -0.436,0.003 -0.654,0.003c-0.762,-0.007 -1.524,-0.033 -2.286,-0.047c-0.161,-0.001 -0.321,-0.002 -0.481,0c-0.081,0.002 -0.163,0.002 -0.244,0.012c-0.051,0.007 -0.103,0.017 -0.155,0.024c-0.139,0.016 -0.138,0.016 -0.278,0.029c-0.414,0.031 -0.829,0.047 -1.244,0.063c-0.876,0.031 -1.752,0.059 -2.629,0.089l-0.339,0.013c-0.07,0.103 -0.141,0.205 -0.214,0.307c-0.514,0.699 -1.108,1.352 -1.824,1.85c-0.198,0.138 -0.405,0.263 -0.622,0.371c-0.245,0.122 -0.503,0.22 -0.76,0.316c-0.429,0.161 -0.87,0.295 -1.323,0.369c-0.539,0.088 -1.09,0.09 -1.629,-0.001c-1.099,-0.185 -2.094,-0.735 -2.987,-1.381c-0.167,-0.121 -0.33,-0.245 -0.491,-0.373c-0.235,-0.185 -0.456,-0.38 -0.638,-0.619c-0.175,-0.227 -0.313,-0.483 -0.4,-0.757c-0.061,-0.191 -0.098,-0.39 -0.108,-0.591c-0.008,-0.159 0,-0.318 0.025,-0.475c0.024,-0.153 0.064,-0.303 0.118,-0.447c0.213,-0.572 0.647,-1.024 1.169,-1.327c0.341,-0.198 0.715,-0.336 1.093,-0.445c0.459,-0.132 0.929,-0.225 1.399,-0.302c0.529,-0.086 1.061,-0.152 1.594,-0.207c0.854,-0.09 1.711,-0.151 2.567,-0.205l0.307,-0.018c-0.227,-0.757 -0.549,-1.484 -0.903,-2.19c-0.416,-0.828 -0.882,-1.63 -1.375,-2.413c-0.679,-1.079 -1.41,-2.124 -2.175,-3.143c-0.827,-1.103 -1.695,-2.176 -2.595,-3.22c-1.148,-1.33 -2.349,-2.615 -3.607,-3.842c-1.067,-1.04 -2.174,-2.04 -3.339,-2.969c-0.597,-0.477 -1.208,-0.939 -1.849,-1.358c-1.008,-0.658 -2.094,-1.215 -3.251,-1.559c-0.647,-0.193 -1.316,-0.317 -1.991,-0.346c-0.687,-0.03 -1.378,0.041 -2.044,0.218c-0.245,0.065 -0.487,0.144 -0.724,0.237c-1.52,0.592 -2.791,1.697 -3.817,2.944c-0.45,0.547 -0.859,1.127 -1.235,1.727c-0.182,0.292 -0.36,0.587 -0.521,0.892c-0.151,0.286 -0.287,0.58 -0.408,0.88c-0.35,0.876 -0.563,1.803 -0.657,2.74c-0.139,1.39 -0.018,2.797 0.295,4.156c0.425,1.845 1.211,3.608 2.299,5.157c0.765,1.091 1.682,2.078 2.734,2.897c1.04,0.809 2.211,1.45 3.464,1.861c0.503,0.164 1.015,0.284 1.534,0.387c0.416,0.082 0.835,0.153 1.256,0.208c1.433,0.19 2.928,0.211 4.304,-0.29c0.99,-0.36 1.859,-0.972 2.633,-1.678c0.17,-0.155 0.336,-0.315 0.498,-0.478c0.098,-0.098 0.197,-0.196 0.289,-0.299c0.03,-0.035 0.058,-0.072 0.084,-0.111c0.105,-0.162 0.175,-0.344 0.228,-0.53c0.062,-0.217 0.1,-0.441 0.124,-0.666c0.08,-0.732 0.027,-1.477 -0.066,-2.206c-0.089,-0.691 -0.224,-1.377 -0.383,-2.055c-0.185,-0.787 -0.405,-1.566 -0.648,-2.337c-0.252,-0.797 -0.528,-1.587 -0.825,-2.369c-0.239,-0.632 -0.491,-1.259 -0.762,-1.877l-0.004,-0.009l-0.025,-1.21l0.821,-0.88l0.018,-0.008l1.204,-0.027l0.886,0.823c0.103,0.226 0.203,0.453 0.302,0.68c0.471,1.09 0.899,2.199 1.286,3.32c0.407,1.179 0.769,2.375 1.052,3.59c0.207,0.891 0.372,1.794 0.46,2.704c0.075,0.779 0.094,1.568 0.007,2.347c-0.113,1.018 -0.42,2.035 -1.047,2.858c-0.173,0.227 -0.371,0.433 -0.569,0.639c-0.246,0.256 -0.5,0.505 -0.762,0.745c-0.802,0.735 -1.685,1.385 -2.658,1.877c-1.1,0.556 -2.297,0.893 -3.521,1.027c-1.28,0.139 -2.576,0.068 -3.849,-0.111c-0.334,-0.047 -0.667,-0.102 -0.998,-0.162c-0.378,-0.069 -0.754,-0.144 -1.127,-0.236c-0.717,-0.178 -1.421,-0.411 -2.104,-0.695c-0.522,-0.218 -1.031,-0.466 -1.525,-0.741c-3.425,-1.909 -6.043,-5.105 -7.513,-8.717c-0.264,-0.649 -0.492,-1.313 -0.681,-1.989c-0.416,-1.487 -0.64,-3.031 -0.641,-4.576c-0.002,-1.884 0.334,-3.773 1.06,-5.514c0.135,-0.324 0.283,-0.641 0.445,-0.952c0.203,-0.391 0.427,-0.771 0.658,-1.145c0.495,-0.804 1.041,-1.578 1.644,-2.305c0.602,-0.724 1.262,-1.401 1.985,-2.006c0.323,-0.27 0.66,-0.523 1.006,-0.763c0.243,-0.168 0.495,-0.325 0.75,-0.473c0.702,-0.408 1.446,-0.743 2.22,-0.99c0.819,-0.263 1.67,-0.425 2.528,-0.483c1.345,-0.092 2.699,0.073 3.995,0.438c1.461,0.412 2.846,1.07 4.132,1.871c0.694,0.433 1.359,0.91 2.007,1.408c0.678,0.521 1.338,1.066 1.982,1.628c1.911,1.665 3.698,3.474 5.382,5.367c1.727,1.942 3.354,3.98 4.822,6.125c0.59,0.862 1.154,1.742 1.678,2.646c0.473,0.817 0.915,1.654 1.299,2.517c0.232,0.521 0.442,1.052 0.617,1.594c0.085,0.261 0.168,0.525 0.224,0.793c0.028,0.136 0.046,0.273 0.06,0.411l0.003,0.043c0.618,-0.021 1.236,-0.041 1.854,-0.066c0.192,-0.009 0.384,-0.018 0.576,-0.031c0.096,-0.007 0.187,-0.017 0.283,-0.033l0.132,-0.016c0.585,-0.057 1.174,-0.039 1.761,-0.026l0.227,0.005c-0.134,-0.25 -0.266,-0.501 -0.397,-0.753c-0.137,-0.267 -0.271,-0.535 -0.404,-0.803c-0.845,-1.726 -1.611,-3.488 -2.324,-5.272c-0.574,-1.435 -1.114,-2.883 -1.624,-4.341c-0.71,-2.026 -1.367,-4.071 -1.947,-6.138c-0.232,-0.828 -0.452,-1.659 -0.65,-2.495c-0.164,-0.691 -0.314,-1.386 -0.432,-2.086c-0.076,-0.453 -0.139,-0.91 -0.165,-1.369c-0.022,-0.407 -0.017,-0.825 0.077,-1.223c0.049,-0.204 0.119,-0.404 0.218,-0.59c0.209,-0.393 0.527,-0.725 0.924,-0.932c0.2,-0.104 0.401,-0.172 0.623,-0.212c0.285,-0.051 0.577,-0.039 0.859,0.023c0.251,0.055 0.49,0.159 0.708,0.293c0.388,0.238 0.697,0.584 0.963,0.949c0.233,0.319 0.439,0.658 0.636,1c0.312,0.543 0.6,1.099 0.879,1.659c0.342,0.685 0.669,1.377 0.99,2.072c1.041,2.258 2.013,4.547 2.962,6.845c1.05,2.544 2.067,5.101 3.045,7.673c0.562,1.478 1.117,2.959 1.622,4.457c0.131,0.386 0.258,0.773 0.371,1.165c0.112,0.39 0.216,0.789 0.211,1.199c-0.003,0.217 -0.033,0.433 -0.09,0.643c-0.039,0.14 -0.055,0.173 -0.107,0.309l-0.006,0.015c0.79,0.004 1.541,-0.367 2.166,-0.824c0.566,-0.414 1.061,-0.923 1.49,-1.476c0.558,-0.718 1.012,-1.52 1.317,-2.377l0.012,-0.035c-0.132,-0.217 -0.26,-0.436 -0.388,-0.656c-0.112,-0.196 -0.222,-0.393 -0.332,-0.59c-1.25,-2.288 -2.266,-4.698 -3.098,-7.167c-0.683,-2.03 -1.249,-4.103 -1.668,-6.204c-0.233,-1.168 -0.427,-2.349 -0.519,-3.537c-0.035,-0.457 -0.055,-0.916 -0.038,-1.374c0.013,-0.35 0.047,-0.702 0.133,-1.042c0.073,-0.292 0.185,-0.576 0.347,-0.831c0.269,-0.423 0.668,-0.761 1.138,-0.939c0.133,-0.05 0.267,-0.086 0.406,-0.111c0.204,-0.035 0.412,-0.041 0.618,-0.019c0.234,0.024 0.462,0.087 0.677,0.181c0.258,0.113 0.494,0.275 0.7,0.467c0.322,0.299 0.568,0.669 0.778,1.052c0.221,0.405 0.406,0.829 0.579,1.256c0.27,0.669 0.509,1.351 0.736,2.036c0.246,0.739 0.476,1.483 0.7,2.229c0.242,0.808 0.475,1.619 0.703,2.432c0.77,2.739 1.477,5.494 2.209,8.243c0.106,0.393 0.212,0.786 0.322,1.177c0.058,0.203 0.118,0.404 0.177,0.606l0.034,0.13c0.059,0.257 0.104,0.515 0.128,0.778c0.03,0.341 0.027,0.682 0.004,1.023l0,0.01c0.84,1.207 1.787,2.35 2.903,3.313c0.766,0.661 1.613,1.235 2.539,1.645c0.399,0.177 0.812,0.323 1.235,0.432c0.249,0.065 0.501,0.109 0.752,0.161c0.104,0.023 0.206,0.048 0.309,0.074c0.09,0.024 0.09,0.024 0.18,0.049c0.002,-0.081 0.001,-0.161 -0.001,-0.241c-0.02,-0.511 -0.089,-1.019 -0.164,-1.524c-0.108,-0.722 -0.237,-1.441 -0.361,-2.16c-0.267,-0.41 -0.531,-0.822 -0.794,-1.235c-0.719,-1.135 -1.423,-2.28 -2.141,-3.416l-0.091,-0.141c-0.11,-0.033 -0.218,-0.069 -0.327,-0.105c-0.134,-0.047 -0.133,-0.047 -0.266,-0.097c-0.221,-0.085 -0.438,-0.176 -0.651,-0.279c-0.279,-0.134 -0.55,-0.286 -0.818,-0.44c-0.345,-0.197 -0.685,-0.403 -1.017,-0.621c-0.249,-0.162 -0.493,-0.331 -0.732,-0.507c-0.174,-0.128 -0.345,-0.26 -0.511,-0.397c-0.116,-0.096 -0.231,-0.194 -0.342,-0.295c-0.584,-0.529 -1.135,-1.171 -1.274,-1.971c-0.02,-0.111 -0.032,-0.224 -0.035,-0.337c-0.006,-0.211 0.016,-0.423 0.07,-0.627c0.064,-0.242 0.168,-0.472 0.309,-0.679c0.096,-0.141 0.205,-0.266 0.33,-0.381c0.114,-0.104 0.237,-0.193 0.369,-0.272c0.114,-0.067 0.233,-0.123 0.356,-0.169c0.103,-0.039 0.209,-0.069 0.316,-0.093c0.562,-0.125 1.14,-0.031 1.68,0.141c0.557,0.177 1.09,0.426 1.609,0.691c0.687,0.351 1.355,0.739 1.953,1.23c0.295,0.242 0.572,0.506 0.83,0.787c0.195,0.212 0.377,0.435 0.555,0.662l0.023,0.031c0.018,-0.111 0.019,-0.111 0.039,-0.223c0.032,-0.168 0.032,-0.167 0.068,-0.334c0.08,-0.335 0.172,-0.666 0.294,-0.989c0.254,-0.679 0.622,-1.317 1.115,-1.851c0.373,-0.404 0.815,-0.744 1.303,-1.001c0.221,-0.117 0.452,-0.211 0.685,-0.303c0.302,-0.12 0.606,-0.235 0.911,-0.345c1.104,-0.395 2.236,-0.725 3.391,-0.936c0.641,-0.118 1.29,-0.199 1.941,-0.222c0.497,-0.018 0.996,-0.003 1.489,0.066c0.656,0.091 1.318,0.28 1.871,0.658c0.243,0.167 0.454,0.372 0.652,0.589c0.266,0.29 0.506,0.605 0.713,0.94c0.293,0.472 0.522,0.989 0.646,1.532c0.093,0.407 0.128,0.827 0.094,1.244c-0.027,0.328 -0.096,0.653 -0.206,0.965c-0.086,0.244 -0.197,0.48 -0.329,0.703c-0.42,0.705 -1.049,1.274 -1.753,1.688c-0.335,0.197 -0.689,0.361 -1.048,0.508c-0.429,0.174 -0.868,0.323 -1.312,0.457c-0.323,0.098 -0.65,0.187 -0.978,0.27c-1.781,0.448 -3.606,0.712 -5.437,0.843l-0.037,0.003c0.102,0.911 0.248,1.818 0.4,2.722c0.098,0.144 0.198,0.286 0.299,0.427c0.687,0.942 1.465,1.833 2.422,2.511c0.377,0.268 0.781,0.5 1.203,0.689c0.8,0.36 1.66,0.564 2.528,0.678c0.868,0.114 1.745,0.142 2.62,0.134c0.47,-0.005 0.94,-0.021 1.41,-0.044c0.682,-0.034 1.363,-0.081 2.043,-0.139c0.747,-0.064 1.492,-0.152 2.23,-0.281c0.649,-0.113 1.294,-0.258 1.921,-0.463c0.369,-0.121 0.733,-0.263 1.079,-0.442c0.366,-0.191 0.712,-0.425 0.995,-0.727l0.022,-0.024c-0.104,-0.126 -0.103,-0.126 -0.205,-0.253c-0.14,-0.178 -0.14,-0.178 -0.277,-0.357c-0.702,-0.937 -1.348,-1.914 -1.978,-2.899c-0.511,-0.798 -1.016,-1.601 -1.52,-2.404c-0.393,-0.628 -0.779,-1.261 -1.153,-1.902c-0.311,-0.535 -0.614,-1.076 -0.902,-1.624c-0.203,-0.385 -0.397,-0.773 -0.58,-1.167c-0.127,-0.275 -0.248,-0.552 -0.361,-0.833c-0.076,-0.189 -0.146,-0.38 -0.213,-0.573c-0.054,-0.152 -0.102,-0.307 -0.146,-0.462c-0.229,-0.798 -0.344,-1.659 -0.11,-2.47c0.039,-0.135 0.087,-0.268 0.145,-0.396c0.075,-0.167 0.165,-0.327 0.271,-0.476c0.147,-0.209 0.324,-0.397 0.522,-0.558c0.276,-0.223 0.589,-0.384 0.923,-0.5l0,0c0.305,-0.097 0.618,-0.155 0.937,-0.174c0.313,-0.019 0.629,-0.008 0.939,0.038c0.178,0.026 0.354,0.064 0.527,0.113c1.198,0.335 2.194,1.156 2.998,2.079c0.142,0.164 0.279,0.331 0.411,0.502c0.832,1.072 1.502,2.267 2.083,3.49c0.735,1.544 1.336,3.155 1.809,4.798c0.235,0.814 0.438,1.64 0.584,2.475c0.131,0.742 0.218,1.496 0.178,2.251l-0.001,0.016c0.381,0.109 0.778,0.157 1.173,0.189c0.152,0.013 0.303,0.023 0.455,0.031c0.14,0.008 0.281,0.017 0.421,0.018c0.055,0 0.11,-0.003 0.165,-0.005c0.604,-0.045 1.196,-0.214 1.767,-0.411c0.847,-0.292 1.665,-0.665 2.464,-1.068c1.351,-0.682 2.655,-1.459 3.921,-2.288c1.391,-0.911 2.746,-1.878 4.054,-2.905c0.768,-0.603 1.519,-1.228 2.244,-1.883c0.313,-0.282 0.618,-0.572 0.913,-0.873c0.232,-0.238 0.463,-0.482 0.662,-0.748c0.259,-0.345 0.463,-0.73 0.653,-1.116l0.01,-0.022c-2.877,-2.617 -5.885,-5.094 -9.033,-7.381c-1.051,-0.764 -2.12,-1.504 -3.203,-2.224c-1.473,-0.979 -2.973,-1.917 -4.508,-2.795c-1.982,-1.134 -4.013,-2.184 -6.105,-3.098c-1.385,-0.605 -2.795,-1.155 -4.229,-1.631c-3.769,-1.252 -7.749,-2.003 -11.731,-1.814c-0.834,0.039 -1.666,0.12 -2.491,0.243c-0.774,0.115 -1.542,0.269 -2.299,0.462c-0.254,0.065 -0.507,0.135 -0.759,0.208c-0.224,0.066 -0.445,0.136 -0.662,0.223c-0.632,0.253 -1.214,0.623 -1.713,1.087c-0.656,0.609 -1.163,1.363 -1.552,2.166c-0.532,1.098 -0.855,2.292 -1.048,3.493c-0.133,0.827 -0.204,1.663 -0.214,2.5c-0.004,0.319 0.002,0.637 0.02,0.955c0.014,0.235 0.034,0.469 0.072,0.7l0.002,0.01l-0.277,1.179l-1.011,0.65l-0.01,0.002c0,0 -0.007,0.001 -0.01,0.002l-1.173,-0.272l-0.655,-1.018c-0.132,-0.729 -0.168,-1.476 -0.172,-2.216c-0.006,-1.135 0.083,-2.272 0.269,-3.392c0.245,-1.483 0.664,-2.948 1.33,-4.299c0.334,-0.677 0.73,-1.324 1.195,-1.919c0.381,-0.488 0.807,-0.94 1.276,-1.344c0.608,-0.525 1.286,-0.966 2.012,-1.31c0.284,-0.134 0.574,-0.253 0.869,-0.358c0.319,-0.113 0.643,-0.21 0.968,-0.305c0.693,-0.201 1.395,-0.374 2.102,-0.519c0.645,-0.131 1.295,-0.24 1.948,-0.323c4.259,-0.544 8.591,-0.086 12.733,0.985c1.687,0.437 3.35,0.971 4.978,1.592c2.018,0.769 3.99,1.659 5.914,2.639c1.376,0.7 2.724,1.452 4.05,2.241c1.44,0.857 2.853,1.759 4.237,2.703c3.53,2.409 6.888,5.06 10.104,7.873l0.221,0.194c0.249,-0.966 0.455,-1.942 0.611,-2.928l0.013,-0.082c-0.258,-0.752 -0.516,-1.503 -0.792,-2.249c-0.119,-0.322 -0.251,-0.64 -0.374,-0.961c-0.056,-0.15 -0.111,-0.301 -0.164,-0.452c-0.08,-0.236 -0.157,-0.474 -0.226,-0.714c-0.051,-0.177 -0.098,-0.355 -0.14,-0.535c-0.182,-0.786 -0.294,-1.655 0.034,-2.419c0.037,-0.088 0.079,-0.173 0.127,-0.255c0.057,-0.097 0.119,-0.19 0.189,-0.278c0.127,-0.158 0.274,-0.299 0.438,-0.416c0.187,-0.133 0.393,-0.237 0.612,-0.306c0.211,-0.066 0.431,-0.099 0.652,-0.099c0.066,-0.001 0.132,0.005 0.198,0.008c0.061,0.009 0.122,0.017 0.184,0.025Zm-39.803,16.747c-0.604,0.009 -1.204,0.093 -1.795,0.214c-0.588,0.121 -1.168,0.279 -1.74,0.462c-0.375,0.119 -0.747,0.25 -1.116,0.389c-0.133,0.05 -0.265,0.101 -0.398,0.154c-0.083,0.033 -0.171,0.065 -0.253,0.103c-0.037,0.018 -0.073,0.038 -0.107,0.061c-0.108,0.077 -0.19,0.181 -0.257,0.295c-0.097,0.163 -0.161,0.341 -0.217,0.521l-0.004,0.017c1.016,-0.084 2.028,-0.216 3.03,-0.407c0.597,-0.113 1.19,-0.246 1.776,-0.408c0.451,-0.124 0.899,-0.263 1.332,-0.44c0.26,-0.106 0.529,-0.22 0.741,-0.41l0.012,-0.01l0.008,-0.008c-0.015,-0.041 -0.034,-0.08 -0.054,-0.119c-0.065,-0.123 -0.145,-0.236 -0.233,-0.344l-0.014,-0.018c-0.135,-0.025 -0.271,-0.038 -0.407,-0.046c-0.101,-0.004 -0.203,-0.006 -0.304,-0.006Z" style="fill:#fff;fill-rule:nonzero;"/><path d="M33.712,13.288c0.824,0.04 1.623,0.254 2.392,0.548c0.183,0.07 0.364,0.145 0.544,0.223c0.125,0.054 0.25,0.108 0.37,0.171c0.197,0.102 0.385,0.22 0.565,0.349c0.537,0.385 1.009,0.857 1.452,1.344c0.611,0.67 1.171,1.385 1.712,2.112c0.644,0.868 1.258,1.759 1.855,2.661c0.783,1.185 1.534,2.389 2.268,3.604l0.048,0.08c-0.023,-0.325 -0.041,-0.65 -0.06,-0.976c-0.015,-0.3 -0.028,-0.599 -0.04,-0.899c-0.022,-0.676 -0.035,-1.351 -0.027,-2.027c0.007,-0.546 0.027,-1.093 0.065,-1.638c0.027,-0.388 0.064,-0.775 0.114,-1.16c0.036,-0.287 0.08,-0.574 0.133,-0.859c0.037,-0.197 0.078,-0.394 0.125,-0.59c0.26,-1.101 0.692,-2.207 1.485,-3.037c0.116,-0.122 0.239,-0.236 0.368,-0.343c0.168,-0.137 0.346,-0.261 0.534,-0.369c0.269,-0.154 0.553,-0.268 0.85,-0.357c0.188,-0.051 0.188,-0.05 0.377,-0.098c0.302,-0.071 0.605,-0.135 0.911,-0.183c0.647,-0.102 1.303,-0.143 1.957,-0.116c0.683,0.029 1.362,0.135 2.021,0.315c0.428,0.118 0.847,0.267 1.254,0.445c0.302,0.131 0.597,0.279 0.884,0.441c2.086,1.177 3.684,3.053 4.933,5.065c0.212,0.343 0.416,0.691 0.611,1.044c0.255,0.461 0.496,0.929 0.726,1.403c0.31,0.642 0.599,1.295 0.869,1.955c0.343,0.835 0.657,1.681 0.948,2.535c0.426,1.246 0.804,2.509 1.147,3.78c0.286,1.062 0.551,2.129 0.792,3.201c0.13,0.582 0.251,1.165 0.37,1.749c0.179,0.884 0.347,1.771 0.508,2.659c0.099,0.544 0.199,1.089 0.29,1.634c0.115,0.693 0.227,1.386 0.344,2.078c0.053,0.309 0.107,0.617 0.166,0.925c0.033,0.166 0.067,0.332 0.105,0.498c0.01,0.038 0.009,0.037 0.019,0.075c0.066,0.159 0.16,0.308 0.254,0.452c0.173,0.264 0.367,0.513 0.57,0.753c0.3,0.354 0.623,0.689 0.977,0.99c0.224,0.19 0.46,0.368 0.71,0.522c0.343,0.211 0.719,0.357 1.092,0.505c0.497,0.198 1.002,0.377 1.517,0.519c0.494,0.136 1.003,0.243 1.517,0.259c0.351,0.012 0.711,-0.022 1.039,-0.157c0.222,-0.092 0.422,-0.23 0.603,-0.387c0.224,-0.195 0.425,-0.413 0.621,-0.636c0.14,-0.16 0.282,-0.319 0.412,-0.488c0.323,-0.419 0.603,-0.873 0.869,-1.33c0.551,-0.948 1.037,-1.94 1.435,-2.963c0.237,-0.61 0.451,-1.238 0.57,-1.883c0.04,-0.211 0.07,-0.426 0.07,-0.642c0,-0.042 -0.001,-0.084 -0.004,-0.126c-0.002,-0.021 -0.009,-0.043 -0.007,-0.064c0.001,-0.012 0.006,0.046 0.005,0.034c-0.004,-0.037 -0.012,-0.075 -0.023,-0.11c-0.001,-0.002 0.001,0.006 0.003,0.007c0,0 0,0 0.001,0.002c0.007,0.017 0.016,0.032 0.026,0.047l0.01,0.014l-0.292,-0.974c0.156,-0.301 0.209,-0.686 0.47,-0.904l0,0l0.007,-0.006l0.969,-0.295l0.905,0.466c0.018,0.022 0.037,0.044 0.056,0.066c0.108,0.142 0.203,0.287 0.281,0.447c0.19,0.393 0.273,0.828 0.292,1.262c0.029,0.657 -0.078,1.318 -0.229,1.956c-0.059,0.247 -0.125,0.492 -0.197,0.736c-0.093,0.315 -0.196,0.626 -0.307,0.935c-0.157,0.441 -0.329,0.876 -0.512,1.307c-0.23,0.541 -0.478,1.075 -0.743,1.6c-0.356,0.703 -0.738,1.399 -1.184,2.05c-0.226,0.329 -0.477,0.64 -0.73,0.948c-0.283,0.344 -0.587,0.674 -0.926,0.964c-0.38,0.325 -0.801,0.599 -1.257,0.802c-0.191,0.085 -0.386,0.157 -0.586,0.218c-1.247,0.377 -2.585,0.26 -3.838,-0.023c-0.223,-0.05 -0.445,-0.106 -0.665,-0.167c-0.533,-0.146 -1.058,-0.319 -1.577,-0.508c-0.384,-0.14 -0.764,-0.285 -1.128,-0.471c-0.605,-0.309 -1.168,-0.7 -1.689,-1.135c-0.516,-0.43 -0.996,-0.904 -1.429,-1.416c-0.228,-0.269 -0.444,-0.549 -0.643,-0.84c-0.181,-0.264 -0.349,-0.539 -0.488,-0.827c-0.071,-0.147 -0.135,-0.299 -0.186,-0.454c-0.082,-0.245 -0.141,-0.499 -0.2,-0.75c-0.089,-0.38 -0.167,-0.762 -0.245,-1.144c-0.248,-1.227 -0.484,-2.456 -0.727,-3.684c-0.153,-0.76 -0.309,-1.519 -0.475,-2.276c-0.203,-0.928 -0.418,-1.854 -0.643,-2.778c-0.316,-1.297 -0.663,-2.588 -1.053,-3.865c-0.295,-0.963 -0.614,-1.918 -0.966,-2.861c-0.266,-0.712 -0.551,-1.418 -0.861,-2.112c-0.254,-0.57 -0.525,-1.132 -0.816,-1.683c-0.207,-0.392 -0.426,-0.78 -0.657,-1.159c-0.195,-0.321 -0.399,-0.636 -0.614,-0.943c-0.154,-0.22 -0.313,-0.435 -0.478,-0.646c-0.132,-0.169 -0.268,-0.334 -0.408,-0.496c-0.849,-0.978 -1.88,-1.853 -3.118,-2.286c-0.211,-0.074 -0.428,-0.135 -0.647,-0.181c-0.323,-0.068 -0.652,-0.104 -0.982,-0.111c-0.608,-0.012 -1.21,0.082 -1.798,0.233l-0.093,0.026c-0.034,0.031 -0.062,0.07 -0.088,0.108c-0.047,0.068 -0.086,0.141 -0.123,0.215c-0.121,0.25 -0.205,0.518 -0.273,0.787c-0.125,0.489 -0.198,0.99 -0.25,1.491c-0.062,0.599 -0.09,1.202 -0.1,1.804c-0.015,0.878 0.009,1.756 0.055,2.633c0.055,1.068 0.143,2.134 0.249,3.198c0.248,2.488 0.595,4.965 0.963,7.438l0.022,0.146c0.164,0.334 0.326,0.669 0.486,1.005c0.156,0.329 0.31,0.658 0.462,0.989c0.519,1.139 1.021,2.29 1.436,3.473c0.145,0.412 0.279,0.829 0.388,1.252c0.1,0.383 0.181,0.773 0.212,1.168c0.028,0.349 0.004,0.697 -0.04,1.044c-0.109,0.85 -0.373,1.711 -0.935,2.375c-0.085,0.101 -0.176,0.196 -0.273,0.285c-0.127,0.116 -0.264,0.221 -0.41,0.312c-0.181,0.115 -0.376,0.208 -0.58,0.277c-0.307,0.104 -0.633,0.151 -0.958,0.138c-0.271,-0.011 -0.541,-0.063 -0.797,-0.154c-0.234,-0.082 -0.457,-0.197 -0.661,-0.337c-0.824,-0.564 -1.318,-1.515 -1.419,-2.497c-0.049,-0.484 -0.002,-0.967 0.117,-1.438l0.004,-0.013c-0.001,-0.351 -0.039,-0.701 -0.076,-1.049c-0.052,-0.475 -0.114,-0.948 -0.179,-1.422c-0.178,-1.286 -0.375,-2.57 -0.567,-3.855l-0.024,-0.159c-1.295,-2.593 -2.693,-5.135 -4.167,-7.631c-0.712,-1.204 -1.444,-2.398 -2.202,-3.574c-0.622,-0.965 -1.261,-1.919 -1.932,-2.851c-0.264,-0.366 -0.534,-0.73 -0.811,-1.087c-0.368,-0.476 -0.749,-0.944 -1.161,-1.383c-0.143,-0.153 -0.29,-0.302 -0.445,-0.443c-0.099,-0.09 -0.203,-0.182 -0.317,-0.254c-0.043,-0.028 -0.069,-0.033 -0.134,-0.061c-0.043,-0.019 -0.087,-0.037 -0.131,-0.056c-0.19,-0.078 -0.382,-0.151 -0.577,-0.214c-0.177,-0.057 -0.358,-0.107 -0.542,-0.139c-0.105,-0.018 -0.215,-0.032 -0.323,-0.024c-0.022,0.027 -0.04,0.057 -0.059,0.087c-0.092,0.154 -0.163,0.32 -0.226,0.487c-0.079,0.209 -0.145,0.422 -0.21,0.635c-0.012,0.041 -0.019,0.082 -0.027,0.124c-0.048,0.314 -0.053,0.633 -0.053,0.95l0,0.014c0.104,0.228 0.203,0.458 0.301,0.689c0.015,0.038 0.031,0.075 0.046,0.113l0.004,0.009l0.001,1.021l-0.219,0.231c0.025,0.236 0.053,0.471 0.082,0.706c0.188,1.467 0.438,2.924 0.739,4.371c0.225,1.08 0.477,2.155 0.772,3.218c0.174,0.629 0.362,1.255 0.59,1.866c0.063,0.168 0.129,0.335 0.203,0.499c0.022,0.049 0.045,0.097 0.069,0.145c0.009,0.018 0.025,0.061 0.04,0.076c0.021,0.021 0.044,0.04 0.066,0.061c0.091,0.082 0.183,0.164 0.275,0.245c0.539,0.465 1.091,0.914 1.636,1.372c0.201,0.171 0.402,0.342 0.601,0.516c0.907,0.796 1.779,1.63 2.568,2.544c1.186,1.372 2.18,2.915 2.839,4.61c0.14,0.361 0.265,0.729 0.375,1.101c0.107,0.365 0.203,0.732 0.236,1.113c0.054,0.607 -0.029,1.221 -0.223,1.799c-0.371,1.103 -1.12,2.039 -1.966,2.821c-0.153,0.142 -0.311,0.279 -0.472,0.413c-0.21,0.174 -0.426,0.342 -0.646,0.503c-0.316,0.233 -0.641,0.453 -0.973,0.663c-0.618,0.39 -1.258,0.745 -1.917,1.061c-0.455,0.218 -0.921,0.43 -1.41,0.56c-0.355,0.083 -0.354,0.083 -0.71,0.164c-0.557,0.123 -1.114,0.239 -1.675,0.341c-2.339,0.425 -4.729,0.65 -7.106,0.502c-1.867,-0.117 -3.729,-0.471 -5.473,-1.158c-1.08,-0.425 -2.111,-0.977 -3.054,-1.654c-0.616,-0.442 -1.194,-0.936 -1.727,-1.475c-0.426,-0.43 -0.823,-0.888 -1.189,-1.369c-0.242,-0.317 -0.47,-0.643 -0.686,-0.978c-1.525,-2.371 -2.378,-5.116 -2.821,-7.884c-0.072,-0.448 -0.133,-0.897 -0.184,-1.348c-0.066,-0.576 -0.116,-1.153 -0.153,-1.731c-0.048,-0.759 -0.072,-1.52 -0.076,-2.281c-0.005,-1.038 0.027,-2.076 0.09,-3.113c0.087,-1.433 0.234,-2.862 0.429,-4.285c0.134,-0.98 0.291,-1.957 0.465,-2.931c0.138,-0.774 0.289,-1.546 0.44,-2.318c0.041,-0.205 0.084,-0.409 0.129,-0.613c0.077,-0.344 0.16,-0.687 0.251,-1.027c0.548,-2.036 1.392,-4.047 2.795,-5.647c0.719,-0.819 1.578,-1.511 2.542,-2.022c0.237,-0.126 0.484,-0.236 0.732,-0.337c0.681,-0.277 1.395,-0.47 2.12,-0.591c0.329,-0.055 0.658,-0.091 0.991,-0.112c0.219,-0.014 0.438,-0.024 0.657,-0.019c0.366,0.007 0.732,0.05 1.09,0.125c0.372,0.078 0.737,0.19 1.089,0.332c0.147,0.059 0.295,0.121 0.436,0.193c0.325,0.166 0.639,0.35 0.94,0.556c1.326,0.906 2.392,2.143 3.319,3.442l0.075,0.107c0.034,-0.044 0.069,-0.086 0.104,-0.129l0.099,-0.114c0.217,-0.232 0.449,-0.446 0.711,-0.627c0.442,-0.305 0.944,-0.513 1.47,-0.619c0.278,-0.055 0.559,-0.079 0.841,-0.085c0.084,0 0.169,0.002 0.253,0.004Zm-10.289,0.58c-0.119,0.002 -0.235,0.017 -0.352,0.033c-0.15,0.02 -0.299,0.045 -0.448,0.072c-0.239,0.044 -0.476,0.089 -0.71,0.152c-0.417,0.113 -0.824,0.269 -1.204,0.476c-0.309,0.169 -0.604,0.358 -0.875,0.584c-0.686,0.572 -1.203,1.32 -1.601,2.114c-0.269,0.536 -0.488,1.096 -0.673,1.667c-0.213,0.658 -0.381,1.33 -0.519,2.007c-0.09,0.439 -0.17,0.881 -0.252,1.321c-0.116,0.624 -0.227,1.249 -0.329,1.875c-0.226,1.381 -0.41,2.768 -0.543,4.161c-0.114,1.19 -0.191,2.383 -0.216,3.578c-0.019,0.849 -0.012,1.7 0.026,2.549c0.031,0.681 0.082,1.361 0.157,2.039c0.055,0.502 0.124,1.003 0.209,1.501c0.064,0.381 0.138,0.761 0.222,1.138c0.071,0.318 0.149,0.634 0.235,0.948c0.554,2.025 1.456,3.999 2.904,5.544c0.262,0.279 0.54,0.542 0.833,0.788c0.453,0.38 0.943,0.716 1.458,1.006c0.814,0.458 1.691,0.797 2.594,1.035c1.097,0.289 2.229,0.432 3.362,0.475c1.513,0.058 3.03,-0.06 4.527,-0.28c1.093,-0.16 2.18,-0.372 3.253,-0.635c0.02,-0.005 0.039,-0.014 0.059,-0.021c0.035,-0.014 0.07,-0.028 0.106,-0.043c0.132,-0.055 0.263,-0.113 0.392,-0.174c0.333,-0.157 0.66,-0.328 0.98,-0.51c0.508,-0.287 1.002,-0.603 1.467,-0.955c0.37,-0.28 0.727,-0.584 1.035,-0.931c0.157,-0.177 0.306,-0.368 0.412,-0.581c0.028,-0.056 0.053,-0.115 0.07,-0.175c0.009,-0.032 0.018,-0.067 0.013,-0.101c-0.006,-0.036 -0.02,-0.08 -0.029,-0.112c-0.025,-0.091 -0.03,-0.109 -0.056,-0.2c-0.174,-0.58 -0.397,-1.142 -0.671,-1.683c-0.634,-1.251 -1.515,-2.36 -2.496,-3.356c-1.012,-1.027 -2.135,-1.931 -3.237,-2.856c-0.163,-0.139 -0.325,-0.278 -0.486,-0.419c-0.116,-0.104 -0.233,-0.208 -0.347,-0.315c-0.074,-0.069 -0.152,-0.141 -0.221,-0.216c-0.093,-0.099 -0.178,-0.205 -0.257,-0.314c-0.199,-0.274 -0.36,-0.575 -0.503,-0.881c-0.182,-0.391 -0.336,-0.795 -0.479,-1.202c-0.35,-1.002 -0.631,-2.029 -0.887,-3.059c-0.271,-1.089 -0.509,-2.186 -0.72,-3.288c-0.213,-1.115 -0.399,-2.236 -0.547,-3.362c-0.115,-0.871 -0.208,-1.746 -0.255,-2.623c-0.043,-0.788 -0.051,-1.58 0.043,-2.364l0.004,-0.031c-0.326,-0.473 -0.675,-0.929 -1.042,-1.372c-0.136,-0.163 -0.27,-0.327 -0.41,-0.486c-0.511,-0.582 -1.067,-1.132 -1.691,-1.592c-0.314,-0.231 -0.647,-0.441 -1.003,-0.603c-0.107,-0.049 -0.217,-0.092 -0.328,-0.133c-0.254,-0.094 -0.514,-0.163 -0.785,-0.185c-0.063,-0.004 -0.126,-0.006 -0.189,-0.005Zm44.263,27.629l0.008,0.023l-0.016,-0.043c0.005,0.015 0.011,0.03 0.016,0.045l0.003,0.007c-0.008,-0.026 -0.02,-0.062 -0.011,-0.032Zm12.257,-4.642l-0.006,-0.033l-0.001,-0.002c0.002,0.011 0.005,0.023 0.007,0.035Zm-0.002,-0.022l-0.008,-0.028l-0.001,-0.002c0.003,0.01 0.006,0.02 0.009,0.03Zm0.004,-0.007l-0.008,-0.019l-0.001,-0.002c0.003,0.007 0.006,0.014 0.009,0.021Zm-0.005,-0.003l-0.007,-0.023l-0.001,-0.002c0.003,0.009 0.006,0.017 0.008,0.025Z" style="fill:#fff;fill-rule:nonzero;"/><circle cx="168.5" cy="43.5" r="1.5" style="fill:#fff;"/></svg>